<svg width="180" height="180" viewBox="0 0 180 180" fill="none" xmlns="http://www.w3.org/2000/svg">
  <style>
    @media (prefers-color-scheme: light) {
      .bg { fill: #0D1117; }
      .fg { fill: #ffffff; }
      .dot { fill: rgba(255,255,255,0.4); }
    }
    @media (prefers-color-scheme: dark) {
      .bg { fill: #0D1117; }
      .fg { fill: #ffffff; }
      .dot { fill: rgba(255,255,255,0.4); }
    }
  </style>
  <rect class="bg" width="180" height="180" rx="40" />
  <!-- O -->
  <path class="fg" d="M58 60C40.3 60 26 74.3 26 92v0c0 17.7 14.3 32 32 32h0c17.7 0 32-14.3 32-32v0c0-17.7-14.3-32-32-32zm0 12c11 0 20 9 20 20s-9 20-20 20-20-9-20-20 9-20 20-20z"/>
  <!-- Dot separator -->
  <circle class="dot" cx="96" cy="92" r="4"/>
  <!-- D -->
  <path class="fg" d="M112 60h18c17.7 0 32 14.3 32 32v0c0 17.7-14.3 32-32 32h-18V60zm12 12v40h6c11 0 20-9 20-20s-9-20-20-20h-6z"/>
</svg>
